# xmcd
#
# Track frame offsets: 
#        150
#        13990
#        24079
#        32860
#        47534
#        58733
#        75262
#        89557
#        101498
#        115898
#
# Disc length: 1712 seconds
#
# Revision: 0
# Processed by: cddbd v1.5.2PL0 Copyright (c) Steve Scherf et al.
# Submitted via: ExactAudioCopy v1.0b3
#
DISCID=7206ae0a
DTITLE=Ole Paus - Avslutningen
DYEAR=2013
DGENRE=Folk
TTITLE0=Festsang ved feiringen av 7-årsjubileet for Oslosenteret for f
TTITLE0=red og menneskerettigheter
TTITLE1=Dagbladet 1.3.-19.3.2013
TTITLE2=Surrogatiti surrogatitei
TTITLE3=Den siste krigsseiler går fra borde
TTITLE4=Fjols nr. 1-5
TTITLE5=Jeg tar ansvar
TTITLE6=Overveiingeniørens triste sang
TTITLE7=En lystig vise om Ola Borten Moe
TTITLE8=Nathan, velkommen hjem
TTITLE9=Oppgjøret
EXTD=
EXTT0=
EXTT1=
EXTT2=
EXTT3=
EXTT4=
EXTT5=
EXTT6=
EXTT7=
EXTT8=
EXTT9=
PLAYORDER=
